<mxfile host="Electron" modified="2023-10-18T04:28:44.468Z" agent="Mozilla/5.0 (Windows NT 10.0; Win64; x64) AppleWebKit/537.36 (KHTML, like Gecko) draw.io/21.7.5 Chrome/114.0.5735.289 Electron/25.8.1 Safari/537.36" etag="bFfW3cyDkrq5wN8JUt-a" version="21.7.5" type="device">
  <diagram id="C5RBs43oDa-KdzZeNtuy" name="Page-1">
    <mxGraphModel dx="1979" dy="733" grid="1" gridSize="10" guides="1" tooltips="1" connect="1" arrows="1" fold="1" page="1" pageScale="1" pageWidth="827" pageHeight="1169" math="0" shadow="0">
      <root>
        <mxCell id="WIyWlLk6GJQsqaUBKTNV-0" />
        <mxCell id="WIyWlLk6GJQsqaUBKTNV-1" parent="WIyWlLk6GJQsqaUBKTNV-0" />
        <mxCell id="zkfFHV4jXpPFQw0GAbJ--6" value="    UsernameValidator" style="swimlane;fontStyle=0;align=center;verticalAlign=top;childLayout=stackLayout;horizontal=1;startSize=26;horizontalStack=0;resizeParent=1;resizeLast=0;collapsible=1;marginBottom=0;rounded=0;shadow=0;strokeWidth=1;" parent="WIyWlLk6GJQsqaUBKTNV-1" vertex="1">
          <mxGeometry x="-480" y="240" width="250" height="152" as="geometry">
            <mxRectangle x="130" y="380" width="160" height="26" as="alternateBounds" />
          </mxGeometry>
        </mxCell>
        <mxCell id="zkfFHV4jXpPFQw0GAbJ--7" value="# nextValidator: Validator" style="text;align=left;verticalAlign=top;spacingLeft=4;spacingRight=4;overflow=hidden;rotatable=0;points=[[0,0.5],[1,0.5]];portConstraint=eastwest;" parent="zkfFHV4jXpPFQw0GAbJ--6" vertex="1">
          <mxGeometry y="26" width="250" height="26" as="geometry" />
        </mxCell>
        <mxCell id="9eoZUw9j6ORujTTyid7o-14" value="- users: List&lt;User&gt; " style="text;align=left;verticalAlign=top;spacingLeft=4;spacingRight=4;overflow=hidden;rotatable=0;points=[[0,0.5],[1,0.5]];portConstraint=eastwest;" vertex="1" parent="zkfFHV4jXpPFQw0GAbJ--6">
          <mxGeometry y="52" width="250" height="26" as="geometry" />
        </mxCell>
        <mxCell id="zkfFHV4jXpPFQw0GAbJ--9" value="" style="line;html=1;strokeWidth=1;align=left;verticalAlign=middle;spacingTop=-1;spacingLeft=3;spacingRight=3;rotatable=0;labelPosition=right;points=[];portConstraint=eastwest;" parent="zkfFHV4jXpPFQw0GAbJ--6" vertex="1">
          <mxGeometry y="78" width="250" height="8" as="geometry" />
        </mxCell>
        <mxCell id="9eoZUw9j6ORujTTyid7o-4" value="+ setNextValidator (Validator: nextValidator)" style="text;align=left;verticalAlign=top;spacingLeft=4;spacingRight=4;overflow=hidden;rotatable=0;points=[[0,0.5],[1,0.5]];portConstraint=eastwest;rounded=0;shadow=0;html=0;" vertex="1" parent="zkfFHV4jXpPFQw0GAbJ--6">
          <mxGeometry y="86" width="250" height="20" as="geometry" />
        </mxCell>
        <mxCell id="9eoZUw9j6ORujTTyid7o-5" value="+ UsernameValidator(List&lt;User&gt; users)" style="text;align=left;verticalAlign=top;spacingLeft=4;spacingRight=4;overflow=hidden;rotatable=0;points=[[0,0.5],[1,0.5]];portConstraint=eastwest;rounded=0;shadow=0;html=0;" vertex="1" parent="zkfFHV4jXpPFQw0GAbJ--6">
          <mxGeometry y="106" width="250" height="20" as="geometry" />
        </mxCell>
        <mxCell id="9eoZUw9j6ORujTTyid7o-7" value="+ validate(User user): boolean " style="text;align=left;verticalAlign=top;spacingLeft=4;spacingRight=4;overflow=hidden;rotatable=0;points=[[0,0.5],[1,0.5]];portConstraint=eastwest;rounded=0;shadow=0;html=0;" vertex="1" parent="zkfFHV4jXpPFQw0GAbJ--6">
          <mxGeometry y="126" width="250" height="26" as="geometry" />
        </mxCell>
        <mxCell id="9eoZUw9j6ORujTTyid7o-0" value="«interface»&lt;br&gt;&lt;b&gt;Validator&lt;/b&gt;" style="html=1;whiteSpace=wrap;" vertex="1" parent="WIyWlLk6GJQsqaUBKTNV-1">
          <mxGeometry x="-480" y="40" width="250" height="50" as="geometry" />
        </mxCell>
        <mxCell id="9eoZUw9j6ORujTTyid7o-2" value="" style="rounded=0;whiteSpace=wrap;html=1;" vertex="1" parent="WIyWlLk6GJQsqaUBKTNV-1">
          <mxGeometry x="-480" y="90" width="250" height="80" as="geometry" />
        </mxCell>
        <mxCell id="9eoZUw9j6ORujTTyid7o-3" value="+ setNextValidator (Validator: nextValidator)" style="text;align=left;verticalAlign=top;spacingLeft=4;spacingRight=4;overflow=hidden;rotatable=0;points=[[0,0.5],[1,0.5]];portConstraint=eastwest;rounded=0;shadow=0;html=0;" vertex="1" parent="WIyWlLk6GJQsqaUBKTNV-1">
          <mxGeometry x="-480" y="90" width="250" height="20" as="geometry" />
        </mxCell>
        <mxCell id="zkfFHV4jXpPFQw0GAbJ--3" value="+ validate(User user): boolean " style="text;align=left;verticalAlign=top;spacingLeft=4;spacingRight=4;overflow=hidden;rotatable=0;points=[[0,0.5],[1,0.5]];portConstraint=eastwest;rounded=0;shadow=0;html=0;" parent="WIyWlLk6GJQsqaUBKTNV-1" vertex="1">
          <mxGeometry x="-480" y="116" width="250" height="26" as="geometry" />
        </mxCell>
        <mxCell id="9eoZUw9j6ORujTTyid7o-8" value="    PasswordValidator" style="swimlane;fontStyle=0;align=center;verticalAlign=top;childLayout=stackLayout;horizontal=1;startSize=26;horizontalStack=0;resizeParent=1;resizeLast=0;collapsible=1;marginBottom=0;rounded=0;shadow=0;strokeWidth=1;" vertex="1" parent="WIyWlLk6GJQsqaUBKTNV-1">
          <mxGeometry x="-610" y="430" width="250" height="152" as="geometry">
            <mxRectangle x="130" y="380" width="160" height="26" as="alternateBounds" />
          </mxGeometry>
        </mxCell>
        <mxCell id="9eoZUw9j6ORujTTyid7o-9" value="# nextValidator: Validator" style="text;align=left;verticalAlign=top;spacingLeft=4;spacingRight=4;overflow=hidden;rotatable=0;points=[[0,0.5],[1,0.5]];portConstraint=eastwest;" vertex="1" parent="9eoZUw9j6ORujTTyid7o-8">
          <mxGeometry y="26" width="250" height="26" as="geometry" />
        </mxCell>
        <mxCell id="9eoZUw9j6ORujTTyid7o-15" value="- users: List&lt;User&gt; " style="text;align=left;verticalAlign=top;spacingLeft=4;spacingRight=4;overflow=hidden;rotatable=0;points=[[0,0.5],[1,0.5]];portConstraint=eastwest;" vertex="1" parent="9eoZUw9j6ORujTTyid7o-8">
          <mxGeometry y="52" width="250" height="26" as="geometry" />
        </mxCell>
        <mxCell id="9eoZUw9j6ORujTTyid7o-10" value="" style="line;html=1;strokeWidth=1;align=left;verticalAlign=middle;spacingTop=-1;spacingLeft=3;spacingRight=3;rotatable=0;labelPosition=right;points=[];portConstraint=eastwest;" vertex="1" parent="9eoZUw9j6ORujTTyid7o-8">
          <mxGeometry y="78" width="250" height="8" as="geometry" />
        </mxCell>
        <mxCell id="9eoZUw9j6ORujTTyid7o-11" value="+ setNextValidator (Validator: nextValidator)" style="text;align=left;verticalAlign=top;spacingLeft=4;spacingRight=4;overflow=hidden;rotatable=0;points=[[0,0.5],[1,0.5]];portConstraint=eastwest;rounded=0;shadow=0;html=0;" vertex="1" parent="9eoZUw9j6ORujTTyid7o-8">
          <mxGeometry y="86" width="250" height="20" as="geometry" />
        </mxCell>
        <mxCell id="9eoZUw9j6ORujTTyid7o-12" value="+ PasswordValidator(List&lt;User&gt; users)" style="text;align=left;verticalAlign=top;spacingLeft=4;spacingRight=4;overflow=hidden;rotatable=0;points=[[0,0.5],[1,0.5]];portConstraint=eastwest;rounded=0;shadow=0;html=0;" vertex="1" parent="9eoZUw9j6ORujTTyid7o-8">
          <mxGeometry y="106" width="250" height="20" as="geometry" />
        </mxCell>
        <mxCell id="9eoZUw9j6ORujTTyid7o-13" value="+ validate(User user): boolean " style="text;align=left;verticalAlign=top;spacingLeft=4;spacingRight=4;overflow=hidden;rotatable=0;points=[[0,0.5],[1,0.5]];portConstraint=eastwest;rounded=0;shadow=0;html=0;" vertex="1" parent="9eoZUw9j6ORujTTyid7o-8">
          <mxGeometry y="126" width="250" height="26" as="geometry" />
        </mxCell>
        <mxCell id="9eoZUw9j6ORujTTyid7o-16" value="    RoleValidator" style="swimlane;fontStyle=0;align=center;verticalAlign=top;childLayout=stackLayout;horizontal=1;startSize=26;horizontalStack=0;resizeParent=1;resizeLast=0;collapsible=1;marginBottom=0;rounded=0;shadow=0;strokeWidth=1;" vertex="1" parent="WIyWlLk6GJQsqaUBKTNV-1">
          <mxGeometry x="-320" y="432" width="250" height="152" as="geometry">
            <mxRectangle x="130" y="380" width="160" height="26" as="alternateBounds" />
          </mxGeometry>
        </mxCell>
        <mxCell id="9eoZUw9j6ORujTTyid7o-17" value="# nextValidator: Validator" style="text;align=left;verticalAlign=top;spacingLeft=4;spacingRight=4;overflow=hidden;rotatable=0;points=[[0,0.5],[1,0.5]];portConstraint=eastwest;" vertex="1" parent="9eoZUw9j6ORujTTyid7o-16">
          <mxGeometry y="26" width="250" height="26" as="geometry" />
        </mxCell>
        <mxCell id="9eoZUw9j6ORujTTyid7o-18" value="- users: List&lt;User&gt; " style="text;align=left;verticalAlign=top;spacingLeft=4;spacingRight=4;overflow=hidden;rotatable=0;points=[[0,0.5],[1,0.5]];portConstraint=eastwest;" vertex="1" parent="9eoZUw9j6ORujTTyid7o-16">
          <mxGeometry y="52" width="250" height="26" as="geometry" />
        </mxCell>
        <mxCell id="9eoZUw9j6ORujTTyid7o-19" value="" style="line;html=1;strokeWidth=1;align=left;verticalAlign=middle;spacingTop=-1;spacingLeft=3;spacingRight=3;rotatable=0;labelPosition=right;points=[];portConstraint=eastwest;" vertex="1" parent="9eoZUw9j6ORujTTyid7o-16">
          <mxGeometry y="78" width="250" height="8" as="geometry" />
        </mxCell>
        <mxCell id="9eoZUw9j6ORujTTyid7o-20" value="+ setNextValidator (Validator: nextValidator)" style="text;align=left;verticalAlign=top;spacingLeft=4;spacingRight=4;overflow=hidden;rotatable=0;points=[[0,0.5],[1,0.5]];portConstraint=eastwest;rounded=0;shadow=0;html=0;" vertex="1" parent="9eoZUw9j6ORujTTyid7o-16">
          <mxGeometry y="86" width="250" height="20" as="geometry" />
        </mxCell>
        <mxCell id="9eoZUw9j6ORujTTyid7o-21" value="+ RoleValidator(List&lt;User&gt; users)" style="text;align=left;verticalAlign=top;spacingLeft=4;spacingRight=4;overflow=hidden;rotatable=0;points=[[0,0.5],[1,0.5]];portConstraint=eastwest;rounded=0;shadow=0;html=0;" vertex="1" parent="9eoZUw9j6ORujTTyid7o-16">
          <mxGeometry y="106" width="250" height="20" as="geometry" />
        </mxCell>
        <mxCell id="9eoZUw9j6ORujTTyid7o-22" value="+ validate(User user): boolean " style="text;align=left;verticalAlign=top;spacingLeft=4;spacingRight=4;overflow=hidden;rotatable=0;points=[[0,0.5],[1,0.5]];portConstraint=eastwest;rounded=0;shadow=0;html=0;" vertex="1" parent="9eoZUw9j6ORujTTyid7o-16">
          <mxGeometry y="126" width="250" height="26" as="geometry" />
        </mxCell>
        <mxCell id="9eoZUw9j6ORujTTyid7o-23" value="&lt;br&gt;&lt;b&gt;User&lt;/b&gt;" style="swimlane;fontStyle=0;align=center;verticalAlign=top;childLayout=stackLayout;horizontal=1;startSize=55;horizontalStack=0;resizeParent=1;resizeParentMax=0;resizeLast=0;collapsible=0;marginBottom=0;html=1;whiteSpace=wrap;" vertex="1" parent="WIyWlLk6GJQsqaUBKTNV-1">
          <mxGeometry x="110" y="20" width="230" height="220" as="geometry" />
        </mxCell>
        <mxCell id="9eoZUw9j6ORujTTyid7o-24" value="attributes" style="text;html=1;strokeColor=none;fillColor=none;align=center;verticalAlign=middle;spacingLeft=4;spacingRight=4;overflow=hidden;rotatable=0;points=[[0,0.5],[1,0.5]];portConstraint=eastwest;whiteSpace=wrap;" vertex="1" parent="9eoZUw9j6ORujTTyid7o-23">
          <mxGeometry y="55" width="230" height="15" as="geometry" />
        </mxCell>
        <mxCell id="9eoZUw9j6ORujTTyid7o-25" value="- username: String" style="text;html=1;strokeColor=none;fillColor=none;align=left;verticalAlign=middle;spacingLeft=4;spacingRight=4;overflow=hidden;rotatable=0;points=[[0,0.5],[1,0.5]];portConstraint=eastwest;whiteSpace=wrap;" vertex="1" parent="9eoZUw9j6ORujTTyid7o-23">
          <mxGeometry y="70" width="230" height="20" as="geometry" />
        </mxCell>
        <mxCell id="9eoZUw9j6ORujTTyid7o-52" value="- password: String" style="text;html=1;strokeColor=none;fillColor=none;align=left;verticalAlign=middle;spacingLeft=4;spacingRight=4;overflow=hidden;rotatable=0;points=[[0,0.5],[1,0.5]];portConstraint=eastwest;whiteSpace=wrap;" vertex="1" parent="9eoZUw9j6ORujTTyid7o-23">
          <mxGeometry y="90" width="230" height="30" as="geometry" />
        </mxCell>
        <mxCell id="9eoZUw9j6ORujTTyid7o-30" value="" style="line;strokeWidth=1;fillColor=none;align=left;verticalAlign=middle;spacingTop=-1;spacingLeft=3;spacingRight=3;rotatable=0;labelPosition=right;points=[];portConstraint=eastwest;" vertex="1" parent="9eoZUw9j6ORujTTyid7o-23">
          <mxGeometry y="120" width="230" height="8" as="geometry" />
        </mxCell>
        <mxCell id="9eoZUw9j6ORujTTyid7o-31" value="operations" style="text;html=1;strokeColor=none;fillColor=none;align=center;verticalAlign=middle;spacingLeft=4;spacingRight=4;overflow=hidden;rotatable=0;points=[[0,0.5],[1,0.5]];portConstraint=eastwest;whiteSpace=wrap;" vertex="1" parent="9eoZUw9j6ORujTTyid7o-23">
          <mxGeometry y="128" width="230" height="22" as="geometry" />
        </mxCell>
        <mxCell id="9eoZUw9j6ORujTTyid7o-54" value="+User(String username, String password)" style="text;align=left;verticalAlign=top;spacingLeft=4;spacingRight=4;overflow=hidden;rotatable=0;points=[[0,0.5],[1,0.5]];portConstraint=eastwest;rounded=0;shadow=0;html=0;" vertex="1" parent="9eoZUw9j6ORujTTyid7o-23">
          <mxGeometry y="150" width="230" height="20" as="geometry" />
        </mxCell>
        <mxCell id="9eoZUw9j6ORujTTyid7o-53" value="+ getUsername(): String" style="text;align=left;verticalAlign=top;spacingLeft=4;spacingRight=4;overflow=hidden;rotatable=0;points=[[0,0.5],[1,0.5]];portConstraint=eastwest;rounded=0;shadow=0;html=0;" vertex="1" parent="9eoZUw9j6ORujTTyid7o-23">
          <mxGeometry y="170" width="230" height="20" as="geometry" />
        </mxCell>
        <mxCell id="9eoZUw9j6ORujTTyid7o-55" value="+ getPassword(): String" style="text;align=left;verticalAlign=top;spacingLeft=4;spacingRight=4;overflow=hidden;rotatable=0;points=[[0,0.5],[1,0.5]];portConstraint=eastwest;rounded=0;shadow=0;html=0;" vertex="1" parent="9eoZUw9j6ORujTTyid7o-23">
          <mxGeometry y="190" width="230" height="30" as="geometry" />
        </mxCell>
        <mxCell id="9eoZUw9j6ORujTTyid7o-39" value="&lt;br style=&quot;border-color: var(--border-color);&quot;&gt;&lt;b style=&quot;border-color: var(--border-color);&quot;&gt;Client&lt;/b&gt;" style="swimlane;fontStyle=0;align=center;verticalAlign=top;childLayout=stackLayout;horizontal=1;startSize=55;horizontalStack=0;resizeParent=1;resizeParentMax=0;resizeLast=0;collapsible=0;marginBottom=0;html=1;whiteSpace=wrap;" vertex="1" parent="WIyWlLk6GJQsqaUBKTNV-1">
          <mxGeometry x="264" y="332" width="250" height="86" as="geometry" />
        </mxCell>
        <mxCell id="9eoZUw9j6ORujTTyid7o-42" value="" style="line;strokeWidth=1;fillColor=none;align=left;verticalAlign=middle;spacingTop=-1;spacingLeft=3;spacingRight=3;rotatable=0;labelPosition=right;points=[];portConstraint=eastwest;" vertex="1" parent="9eoZUw9j6ORujTTyid7o-39">
          <mxGeometry y="55" width="250" height="8" as="geometry" />
        </mxCell>
        <mxCell id="9eoZUw9j6ORujTTyid7o-56" value="+Client(String username, String password) " style="text;align=left;verticalAlign=top;spacingLeft=4;spacingRight=4;overflow=hidden;rotatable=0;points=[[0,0.5],[1,0.5]];portConstraint=eastwest;rounded=0;shadow=0;html=0;" vertex="1" parent="9eoZUw9j6ORujTTyid7o-39">
          <mxGeometry y="63" width="250" height="23" as="geometry" />
        </mxCell>
        <mxCell id="9eoZUw9j6ORujTTyid7o-64" value="" style="edgeStyle=orthogonalEdgeStyle;rounded=0;orthogonalLoop=1;jettySize=auto;html=1;endArrow=none;endFill=0;" edge="1" parent="WIyWlLk6GJQsqaUBKTNV-1" source="9eoZUw9j6ORujTTyid7o-57">
          <mxGeometry relative="1" as="geometry">
            <mxPoint x="220" y="258" as="targetPoint" />
            <Array as="points">
              <mxPoint x="105" y="268" />
              <mxPoint x="220" y="268" />
            </Array>
          </mxGeometry>
        </mxCell>
        <mxCell id="9eoZUw9j6ORujTTyid7o-57" value="&lt;br style=&quot;border-color: var(--border-color);&quot;&gt;&lt;b style=&quot;border-color: var(--border-color);&quot;&gt;Admin&lt;/b&gt;" style="swimlane;fontStyle=0;align=center;verticalAlign=top;childLayout=stackLayout;horizontal=1;startSize=55;horizontalStack=0;resizeParent=1;resizeParentMax=0;resizeLast=0;collapsible=0;marginBottom=0;html=1;whiteSpace=wrap;" vertex="1" parent="WIyWlLk6GJQsqaUBKTNV-1">
          <mxGeometry x="-20" y="328" width="250" height="90" as="geometry" />
        </mxCell>
        <mxCell id="9eoZUw9j6ORujTTyid7o-58" value="" style="line;strokeWidth=1;fillColor=none;align=left;verticalAlign=middle;spacingTop=-1;spacingLeft=3;spacingRight=3;rotatable=0;labelPosition=right;points=[];portConstraint=eastwest;" vertex="1" parent="9eoZUw9j6ORujTTyid7o-57">
          <mxGeometry y="55" width="250" height="8" as="geometry" />
        </mxCell>
        <mxCell id="9eoZUw9j6ORujTTyid7o-59" value="+Admin(String username, String password)" style="text;align=left;verticalAlign=top;spacingLeft=4;spacingRight=4;overflow=hidden;rotatable=0;points=[[0,0.5],[1,0.5]];portConstraint=eastwest;rounded=0;shadow=0;html=0;" vertex="1" parent="9eoZUw9j6ORujTTyid7o-57">
          <mxGeometry y="63" width="250" height="27" as="geometry" />
        </mxCell>
        <mxCell id="9eoZUw9j6ORujTTyid7o-66" value="" style="endArrow=block;endSize=10;endFill=0;shadow=0;strokeWidth=1;rounded=0;edgeStyle=elbowEdgeStyle;elbow=vertical;entryX=0.477;entryY=1.056;entryDx=0;entryDy=0;entryPerimeter=0;exitX=0.5;exitY=0;exitDx=0;exitDy=0;" edge="1" parent="WIyWlLk6GJQsqaUBKTNV-1" source="9eoZUw9j6ORujTTyid7o-39" target="9eoZUw9j6ORujTTyid7o-55">
          <mxGeometry width="160" relative="1" as="geometry">
            <mxPoint x="340" y="308" as="sourcePoint" />
            <mxPoint x="288" y="201" as="targetPoint" />
            <Array as="points">
              <mxPoint x="310" y="268" />
            </Array>
          </mxGeometry>
        </mxCell>
        <mxCell id="9eoZUw9j6ORujTTyid7o-68" value="" style="endArrow=diamondThin;endFill=0;endSize=24;html=1;rounded=0;exitX=0;exitY=0.5;exitDx=0;exitDy=0;edgeStyle=elbowEdgeStyle;entryX=-0.01;entryY=0.801;entryDx=0;entryDy=0;entryPerimeter=0;strokeColor=#000000;startArrow=open;startFill=0;" edge="1" parent="WIyWlLk6GJQsqaUBKTNV-1" target="9eoZUw9j6ORujTTyid7o-14">
          <mxGeometry width="160" relative="1" as="geometry">
            <mxPoint x="-480" y="116" as="sourcePoint" />
            <mxPoint x="-550" y="300" as="targetPoint" />
            <Array as="points">
              <mxPoint x="-560" y="210" />
            </Array>
          </mxGeometry>
        </mxCell>
        <mxCell id="9eoZUw9j6ORujTTyid7o-72" value="" style="endArrow=block;endSize=10;endFill=0;shadow=0;strokeWidth=1;rounded=0;edgeStyle=elbowEdgeStyle;elbow=vertical;entryX=0.5;entryY=1;entryDx=0;entryDy=0;exitX=0.5;exitY=0;exitDx=0;exitDy=0;dashed=1;" edge="1" parent="WIyWlLk6GJQsqaUBKTNV-1" source="zkfFHV4jXpPFQw0GAbJ--6" target="9eoZUw9j6ORujTTyid7o-2">
          <mxGeometry width="160" relative="1" as="geometry">
            <mxPoint x="-201" y="260" as="sourcePoint" />
            <mxPoint x="-370" y="170" as="targetPoint" />
            <Array as="points">
              <mxPoint x="-280" y="196" />
            </Array>
          </mxGeometry>
        </mxCell>
        <mxCell id="9eoZUw9j6ORujTTyid7o-76" value="" style="endArrow=block;endSize=10;endFill=0;shadow=0;strokeWidth=1;rounded=0;elbow=vertical;edgeStyle=orthogonalEdgeStyle;exitX=0.5;exitY=0;exitDx=0;exitDy=0;" edge="1" parent="WIyWlLk6GJQsqaUBKTNV-1" source="9eoZUw9j6ORujTTyid7o-8" target="9eoZUw9j6ORujTTyid7o-7">
          <mxGeometry width="160" relative="1" as="geometry">
            <mxPoint x="-363" y="420" as="sourcePoint" />
            <mxPoint x="-330" y="450" as="targetPoint" />
            <Array as="points">
              <mxPoint x="-485" y="420" />
              <mxPoint x="-396" y="420" />
            </Array>
          </mxGeometry>
        </mxCell>
        <mxCell id="9eoZUw9j6ORujTTyid7o-78" value="" style="endArrow=block;endSize=10;endFill=0;shadow=0;strokeWidth=1;rounded=0;elbow=vertical;edgeStyle=orthogonalEdgeStyle;exitX=0.443;exitY=0.009;exitDx=0;exitDy=0;exitPerimeter=0;entryX=0.561;entryY=0.95;entryDx=0;entryDy=0;entryPerimeter=0;" edge="1" parent="WIyWlLk6GJQsqaUBKTNV-1" source="9eoZUw9j6ORujTTyid7o-16" target="9eoZUw9j6ORujTTyid7o-7">
          <mxGeometry width="160" relative="1" as="geometry">
            <mxPoint x="-229.96" y="416" as="sourcePoint" />
            <mxPoint x="-340" y="400" as="targetPoint" />
            <Array as="points">
              <mxPoint x="-209" y="420" />
              <mxPoint x="-340" y="420" />
            </Array>
          </mxGeometry>
        </mxCell>
        <mxCell id="9eoZUw9j6ORujTTyid7o-79" value="" style="edgeStyle=orthogonalEdgeStyle;rounded=0;orthogonalLoop=1;jettySize=auto;html=1;dashed=1;exitX=0;exitY=0.5;exitDx=0;exitDy=0;entryX=1;entryY=0.5;entryDx=0;entryDy=0;" edge="1" parent="WIyWlLk6GJQsqaUBKTNV-1" source="9eoZUw9j6ORujTTyid7o-52" target="9eoZUw9j6ORujTTyid7o-3">
          <mxGeometry relative="1" as="geometry">
            <mxPoint x="360" y="145" as="sourcePoint" />
            <mxPoint x="310" y="122" as="targetPoint" />
          </mxGeometry>
        </mxCell>
      </root>
    </mxGraphModel>
  </diagram>
</mxfile>
